<svg xmlns="http://www.w3.org/2000/svg" viewBox="0 0 31.148 29.201">
  <defs>
    <style>
      .cls-1 {
        fill: #fff;
      }
    </style>
  </defs>
  <g id="printer-" transform="translate(0 -0.5)">
    <g id="Group_540" data-name="Group 540" transform="translate(0 0.5)">
      <path id="Path_82" data-name="Path 82" class="cls-1" d="M4,14.393v5.84H19.574V10.5H4Zm1.947-1.947h11.68v1.947H5.947Zm0,3.893h11.68v1.947H5.947Z" transform="translate(3.787 8.967)"/>
      <path id="Path_83" data-name="Path 83" class="cls-1" d="M19.574,6.34V.5H4v9.734H19.574Z" transform="translate(3.787 -0.5)"/>
      <path id="Path_84" data-name="Path 84" class="cls-1" d="M27.254,3.5H25.308V9.34H5.84V3.5H3.893A4.187,4.187,0,0,0,0,7.393v9.734a4.187,4.187,0,0,0,3.893,3.893H5.84V15.18H25.308v5.84h1.947a4.187,4.187,0,0,0,3.893-3.893V7.393A4.187,4.187,0,0,0,27.254,3.5Z" transform="translate(0 2.34)"/>
    </g>
  </g>
</svg>
