<svg xmlns="http://www.w3.org/2000/svg" viewBox="0 0 17.525 13.705">
  <defs>
    <style>
      .cls-1 {
        fill: #007791;
      }
    </style>
  </defs>
  <path id="Path_96" data-name="Path 96" class="cls-1" d="M4.727,66.375a1.347,1.347,0,0,0,1.9,0l6.517-6.517a1.909,1.909,0,0,0,.425-.648,6.852,6.852,0,0,0,1.853.277c1.389-.007,1.85-.615,2-.979s.259-1.116-.716-2.109l-.032-.032A7.791,7.791,0,0,0,14.2,54.791c-.184-.076-.367-.144-.547-.209v-.011A1.473,1.473,0,0,0,12.2,53.118l-3.9-.054a1.9,1.9,0,0,0-1.378.561L.394,60.143a1.347,1.347,0,0,0,0,1.9ZM9.751,55.4a1.113,1.113,0,0,1,1.889.95,7.768,7.768,0,0,0,1.486.81c.194.079.381.151.561.212L13.666,55.8l.094.04a6.783,6.783,0,0,1,2.112,1.332l.022.022c.468.479.518.785.479.878-.122.291-1.436.551-3.43-.281a7.7,7.7,0,0,1-1.573-.874c-.014.018-.032.036-.047.054A1.112,1.112,0,1,1,9.751,55.4Z" transform="translate(0 -53.064)"/>
</svg>
