<svg xmlns="http://www.w3.org/2000/svg" viewBox="0 0 448 512">
  <defs>
    <style>
      .cls-1 {
        fill: #fff;
      }
    </style>
  </defs>
  <path id="icon-trash" class="cls-1" d="M0,84V56A23.942,23.942,0,0,1,24,32H136l9.4-18.7A23.725,23.725,0,0,1,166.8,0H281.1a23.984,23.984,0,0,1,21.5,13.3L312,32H424a23.942,23.942,0,0,1,24,24V84a12.035,12.035,0,0,1-12,12H12A12.035,12.035,0,0,1,0,84Zm416,56V464a48.012,48.012,0,0,1-48,48H80a48.012,48.012,0,0,1-48-48V140a12.035,12.035,0,0,1,12-12H404A12.035,12.035,0,0,1,416,140ZM144,208a16,16,0,0,0-32,0V432a16,16,0,0,0,32,0Zm96,0a16,16,0,0,0-32,0V432a16,16,0,0,0,32,0Zm96,0a16,16,0,0,0-32,0V432a16,16,0,0,0,32,0Z"/>
</svg>
